# This file uses centimeters as units for non-parametric coordinates.

mtllib plate.mtl
g default
v 0.743257 0.864006 -0.241498
v 0.632254 0.864006 -0.459359
v 0.459359 0.864006 -0.632255
v 0.241499 0.864006 -0.743255
v -0.000000 0.864006 -0.781501
v -0.241499 0.864006 -0.743257
v -0.459359 0.864006 -0.632255
v -0.632255 0.864006 -0.459359
v -0.743257 0.864006 -0.241498
v -0.781501 0.864006 -0.000000
v -0.743257 0.864006 0.241498
v -0.632255 0.864006 0.459359
v -0.459359 0.864006 0.632254
v -0.241498 0.864006 0.743255
v -0.000000 0.864006 0.781501
v 0.241499 0.864006 0.743257
v 0.459359 0.864006 0.632254
v 0.632254 0.864006 0.459359
v 0.743257 0.864006 0.241498
v 0.781501 0.864006 -0.000000
v 0.951057 1.000000 -0.309017
v 0.809018 1.000000 -0.587786
v 0.587786 1.000000 -0.809017
v 0.309017 1.000000 -0.951057
v 0.000000 1.000000 -1.000000
v -0.309017 1.000000 -0.951057
v -0.587785 1.000000 -0.809017
v -0.809017 1.000000 -0.587785
v -0.951057 1.000000 -0.309017
v -1.000000 1.000000 0.000000
v -0.951057 1.000000 0.309017
v -0.809017 1.000000 0.587785
v -0.587785 1.000000 0.809017
v -0.309017 1.000000 0.951057
v -0.000000 1.000000 1.000000
v 0.309017 1.000000 0.951057
v 0.587785 1.000000 0.809017
v 0.809017 1.000000 0.587785
v 0.951057 1.000000 0.309017
v 1.000000 1.000000 0.000000
v -0.000000 0.864006 -0.000000
v 0.951057 1.041943 -0.309017
v 0.809018 1.041943 -0.587786
v 0.587786 1.041943 -0.809017
v 0.309017 1.041943 -0.951057
v 0.000000 1.041943 -1.000000
v -0.309017 1.041943 -0.951057
v -0.587785 1.041943 -0.809017
v -0.809017 1.041943 -0.587785
v -0.951057 1.041943 -0.309017
v -1.000000 1.041943 -0.000000
v -0.951057 1.041943 0.309017
v -0.809017 1.041943 0.587785
v -0.587785 1.041943 0.809017
v -0.309017 1.041943 0.951057
v -0.000000 1.041943 1.000000
v 0.309017 1.041943 0.951057
v 0.587785 1.041943 0.809017
v 0.809017 1.041943 0.587785
v 0.951057 1.041943 0.309017
v 1.000000 1.041943 -0.000000
v 0.733000 0.940147 -0.231235
v 0.623527 0.940147 -0.446087
v -0.000000 0.940148 0.006932
v 0.453019 0.940147 -0.616596
v 0.238166 0.940147 -0.726069
v -0.000000 0.940147 -0.763790
v -0.238166 0.940147 -0.726069
v -0.453019 0.940147 -0.616595
v -0.623527 0.940147 -0.446087
v -0.733000 0.940147 -0.231234
v -0.770722 0.940147 0.006932
v -0.733000 0.940147 0.245098
v -0.623527 0.940147 0.459950
v -0.453019 0.940147 0.630459
v -0.238166 0.940147 0.739932
v -0.000000 0.940147 0.770722
v 0.238166 0.940147 0.733000
v 0.453019 0.940147 0.623527
v 0.623527 0.940147 0.459950
v 0.733000 0.940147 0.245098
v 0.770722 0.940147 0.006932
v 0.990894 1.015853 -0.315251
v 0.842904 1.015853 -0.599642
v 0.842904 1.026090 -0.599642
v 0.990894 1.026090 -0.315251
v 0.612406 1.015853 -0.825337
v 0.612406 1.026090 -0.825337
v 0.321961 1.015853 -0.970242
v 0.321961 1.026090 -0.970242
v -0.000000 1.015853 -1.020172
v -0.000000 1.026090 -1.020172
v -0.321961 1.015853 -0.970241
v -0.321961 1.026090 -0.970241
v -0.612406 1.015853 -0.825337
v -0.612406 1.026090 -0.825337
v -0.842904 1.015853 -0.599642
v -0.842904 1.026090 -0.599642
v -0.990893 1.015853 -0.315250
v -0.990893 1.026090 -0.315250
v -1.041887 1.015853 -0.000000
v -1.041887 1.026090 -0.000000
v -0.990893 1.015853 0.315250
v -0.990893 1.026090 0.315250
v -0.842904 1.015853 0.599642
v -0.842904 1.026090 0.599642
v -0.612406 1.015853 0.825336
v -0.612406 1.026090 0.825336
v -0.321961 1.015853 0.970241
v -0.321961 1.026090 0.970241
v -0.000000 1.015853 1.020172
v -0.000000 1.026090 1.020172
v 0.321961 1.015853 0.970241
v 0.321961 1.026090 0.970241
v 0.612406 1.015853 0.825336
v 0.612406 1.026090 0.825336
v 0.842904 1.015853 0.599642
v 0.842904 1.026090 0.599642
v 0.990893 1.015853 0.315250
v 0.990893 1.026090 0.315250
v 1.041887 1.015853 0.000000
v 1.041887 1.026090 0.000000
vt 0.245420 0.687253
vt 0.245214 0.616563
vt 0.247471 0.616557
vt 0.247677 0.687246
vt 0.245007 0.545432
vt 0.247264 0.545425
vt 0.245625 0.757668
vt 0.247882 0.757662
vt 0.245830 0.828084
vt 0.248087 0.828077
vt 0.246036 0.898773
vt 0.248293 0.898767
vt 0.246243 0.969905
vt 0.248501 0.969898
vt 0.220052 0.909680
vt 0.220052 0.841961
vt 0.222489 0.841961
vt 0.222489 0.909680
vt 0.220052 0.766895
vt 0.222489 0.766895
vt 0.220052 0.963422
vt 0.222489 0.963422
vt 0.220052 0.691828
vt 0.222489 0.691828
vt 0.220052 0.624110
vt 0.222489 0.624110
vt 0.220052 0.570368
vt 0.222489 0.570368
vt 0.187238 0.073101
vt 0.135361 0.099532
vt 0.104781 0.057442
vt 0.171160 0.023620
vt 0.244743 0.250083
vt 0.094192 0.140702
vt 0.052102 0.110121
vt 0.101958 0.049373
vt 0.169676 0.014134
vt 0.244743 0.063994
vt 0.244743 0.011966
vt 0.067761 0.192578
vt 0.018280 0.176501
vt 0.048216 0.104259
vt 0.244743 0.001992
vt 0.302248 0.073101
vt 0.318325 0.023620
vt 0.058654 0.250083
vt 0.006625 0.250083
vt 0.013711 0.173419
vt 0.319809 0.014134
vt 0.354124 0.099532
vt 0.384705 0.057442
vt 0.067760 0.307588
vt 0.018280 0.323666
vt 0.001822 0.250083
vt 0.387528 0.049373
vt 0.395294 0.140702
vt 0.437384 0.110121
vt 0.094192 0.359465
vt 0.052102 0.390045
vt 0.013711 0.326748
vt 0.441270 0.104259
vt 0.421725 0.192578
vt 0.471206 0.176501
vt 0.135361 0.400634
vt 0.104781 0.442724
vt 0.048216 0.395908
vt 0.475774 0.173419
vt 0.430832 0.250083
vt 0.482860 0.250083
vt 0.187238 0.427066
vt 0.171161 0.476546
vt 0.101958 0.450793
vt 0.487663 0.250083
vt 0.421725 0.307588
vt 0.471206 0.323666
vt 0.244743 0.436172
vt 0.244743 0.488201
vt 0.169676 0.486032
vt 0.475774 0.326748
vt 0.395294 0.359465
vt 0.437384 0.390045
vt 0.302248 0.427066
vt 0.318325 0.476546
vt 0.244743 0.498175
vt 0.441270 0.395908
vt 0.354124 0.400634
vt 0.384705 0.442724
vt 0.319809 0.486032
vt 0.387528 0.450793
vt 0.724991 0.575377
vt 0.776151 0.601444
vt 0.668279 0.749917
vt 0.743512 0.523454
vt 0.809892 0.557276
vt 0.816752 0.642045
vt 0.668279 0.566395
vt 0.744997 0.513968
vt 0.812715 0.549206
vt 0.862571 0.609955
vt 0.669930 0.511799
vt 0.842820 0.693205
vt 0.611568 0.575377
vt 0.669930 0.501825
vt 0.866457 0.604092
vt 0.896393 0.676335
vt 0.596348 0.523454
vt 0.851802 0.749917
vt 0.560408 0.601444
vt 0.594863 0.513968
vt 0.900961 0.673252
vt 0.908047 0.749917
vt 0.529968 0.557276
vt 0.842820 0.806628
vt 0.521457 0.642045
vt 0.527145 0.549207
vt 0.912851 0.749917
vt 0.896393 0.823499
vt 0.477289 0.609955
vt 0.816752 0.857788
vt 0.495390 0.693205
vt 0.473403 0.604092
vt 0.900961 0.826581
vt 0.862571 0.889879
vt 0.443467 0.676335
vt 0.776151 0.898389
vt 0.486408 0.749917
vt 0.438899 0.673252
vt 0.866457 0.895741
vt 0.809892 0.942558
vt 0.431813 0.749917
vt 0.724991 0.924457
vt 0.493739 0.806628
vt 0.427009 0.749917
vt 0.812715 0.950627
vt 0.743512 0.976380
vt 0.443467 0.823499
vt 0.668279 0.933439
vt 0.519807 0.857788
vt 0.438899 0.826581
vt 0.744997 0.985866
vt 0.669930 0.988034
vt 0.477289 0.889879
vt 0.611568 0.924457
vt 0.560408 0.898389
vt 0.473403 0.895741
vt 0.669930 0.998008
vt 0.596348 0.976380
vt 0.529968 0.942558
vt 0.527145 0.950627
vt 0.594863 0.985866
vt 0.214440 0.570368
vt 0.214440 0.639528
vt 0.212002 0.639528
vt 0.212002 0.570368
vt 0.214440 0.716192
vt 0.212002 0.716192
vt 0.214440 0.792857
vt 0.212002 0.792857
vt 0.214440 0.862017
vt 0.212002 0.862017
vt 0.203953 0.862017
vt 0.203953 0.792857
vt 0.206391 0.792857
vt 0.206391 0.862017
vt 0.203953 0.716192
vt 0.206391 0.716192
vt 0.203953 0.639528
vt 0.206391 0.639528
vt 0.203953 0.570368
vt 0.206391 0.570368
vn 0.502558 -0.848983 -0.163286
vn 0.427505 -0.848981 -0.310599
vn 0.413065 -0.858932 -0.302677
vn 0.476667 -0.865115 -0.156090
vn 0.310597 -0.848981 -0.427505
vn 0.306560 -0.851161 -0.426083
vn 0.163286 -0.848984 -0.502557
vn 0.163567 -0.845000 -0.509137
vn 0.000001 -0.848985 -0.528416
vn 0.000001 -0.842765 -0.538282
vn -0.163286 -0.848983 -0.502559
vn -0.163568 -0.844999 -0.509139
vn -0.310599 -0.848980 -0.427506
vn -0.306561 -0.851160 -0.426083
vn -0.427506 -0.848980 -0.310599
vn -0.413065 -0.858932 -0.302678
vn -0.502559 -0.848983 -0.163286
vn -0.476668 -0.865115 -0.156091
vn -0.528417 -0.848985 -0.000000
vn -0.497560 -0.867430 0.000000
vn -0.502559 -0.848983 0.163286
vn -0.476668 -0.865115 0.156091
vn -0.427506 -0.848980 0.310599
vn -0.413065 -0.858931 0.302678
vn -0.310598 -0.848981 0.427506
vn -0.306560 -0.851161 0.426083
vn -0.163286 -0.848984 0.502558
vn -0.163567 -0.845000 0.509138
vn -0.000001 -0.848985 0.528416
vn -0.000001 -0.842765 0.538282
vn 0.163286 -0.848983 0.502559
vn 0.163568 -0.844999 0.509139
vn 0.310599 -0.848980 0.427506
vn 0.306561 -0.851160 0.426083
vn 0.427506 -0.848980 0.310599
vn 0.413065 -0.858931 0.302678
vn 0.502559 -0.848983 0.163286
vn 0.476668 -0.865115 0.156091
vn 0.528417 -0.848985 0.000000
vn 0.497560 -0.867430 0.000000
vn 0.000000 -1.000000 -0.000000
vn 0.000000 -1.000000 -0.000000
vn 0.000000 -1.000000 0.000000
vn 0.000000 -1.000000 -0.000000
vn 0.000000 -1.000000 -0.000000
vn 0.000000 -1.000000 0.000000
vn 0.000000 -1.000000 -0.000000
vn 0.000000 -1.000000 0.000000
vn 0.000000 -1.000000 0.000000
vn 0.000000 -1.000000 0.000000
vn 0.000000 -1.000000 0.000000
vn 0.000000 -1.000000 0.000000
vn 0.000000 -1.000000 -0.000000
vn 0.000000 -1.000000 -0.000000
vn 0.000000 -1.000000 0.000000
vn 0.000000 -1.000000 0.000000
vn 0.000000 -1.000000 0.000000
vn 0.000000 -1.000000 0.000000
vn 0.000000 -1.000000 0.000000
vn 0.000000 -1.000000 0.000000
vn 0.000000 -1.000000 0.000000
vn 0.000000 1.000000 -0.000000
vn 0.000000 1.000000 -0.000001
vn -0.000000 1.000000 -0.000000
vn 0.000000 1.000000 -0.000000
vn 0.000000 1.000000 -0.000000
vn 0.000000 1.000000 -0.000000
vn -0.000000 1.000000 -0.000000
vn -0.000000 1.000000 -0.000001
vn -0.000000 1.000000 -0.000000
vn -0.000000 1.000000 0.000000
vn -0.000000 1.000000 0.000000
vn -0.000000 1.000000 0.000000
vn -0.000000 1.000000 0.000000
vn -0.000000 1.000000 0.000001
vn -0.000000 1.000000 0.000001
vn 0.000000 1.000000 0.000000
vn 0.000000 1.000000 0.000000
vn 0.000000 1.000000 0.000000
vn 0.000000 1.000000 0.000000
vn 0.000000 1.000000 0.000000
vn 0.000000 1.000000 0.000000
vn 0.949109 0.000000 -0.314948
vn 0.803069 0.000000 -0.595886
vn 0.803069 0.000000 -0.595886
vn 0.949109 0.000000 -0.314948
vn 0.579679 0.000000 -0.814845
vn 0.579679 0.000000 -0.814845
vn 0.303174 0.000000 -0.952935
vn 0.303174 0.000000 -0.952935
vn -0.000000 0.000000 -1.000000
vn -0.000000 0.000000 -1.000000
vn -0.303173 0.000000 -0.952935
vn -0.303173 0.000000 -0.952935
vn -0.579681 0.000000 -0.814844
vn -0.579681 0.000000 -0.814844
vn -0.803071 0.000000 -0.595883
vn -0.803071 0.000000 -0.595883
vn -0.949109 0.000000 -0.314947
vn -0.949109 0.000000 -0.314947
vn -1.000000 0.000000 -0.000000
vn -1.000000 0.000000 -0.000000
vn -0.949109 0.000000 0.314949
vn -0.949109 0.000000 0.314949
vn -0.803069 0.000000 0.595886
vn -0.803069 0.000000 0.595886
vn -0.579679 0.000000 0.814845
vn -0.579679 0.000000 0.814845
vn -0.303174 0.000000 0.952935
vn -0.303174 0.000000 0.952935
vn 0.000000 0.000000 1.000000
vn 0.000000 0.000000 1.000000
vn 0.303175 0.000000 0.952935
vn 0.303175 0.000000 0.952935
vn 0.579680 0.000000 0.814844
vn 0.579680 0.000000 0.814844
vn 0.803071 0.000000 0.595883
vn 0.803071 0.000000 0.595883
vn 0.949109 0.000000 0.314947
vn 0.949109 0.000000 0.314947
vn 1.000000 0.000000 0.000001
vn 1.000000 0.000000 0.000001
vn -0.256913 0.962845 0.083214
vn -0.223287 0.961443 0.160529
vn -0.323970 0.916576 0.234374
vn -0.383256 0.915347 0.123510
vn -0.167290 0.959443 0.226898
vn -0.234208 0.917535 0.321367
vn -0.090357 0.957746 0.273052
vn -0.122738 0.918143 0.376762
vn -0.000000 0.957102 0.289751
vn 0.000000 0.918351 0.395768
vn 0.090357 0.957746 0.273052
vn 0.122738 0.918143 0.376762
vn 0.167290 0.959443 0.226898
vn 0.234208 0.917535 0.321367
vn 0.223288 0.961443 0.160529
vn 0.323970 0.916576 0.234375
vn 0.256913 0.962845 0.083214
vn 0.383256 0.915347 0.123510
vn 0.269403 0.963027 0.001048
vn 0.405813 0.913956 -0.001034
vn 0.261198 0.961756 -0.082471
vn 0.388674 0.912534 -0.127338
vn 0.230560 0.959212 -0.163567
vn 0.332735 0.911224 -0.242812
vn 0.175008 0.956084 -0.235109
vn 0.242973 0.910167 -0.335501
vn 0.092472 0.954233 -0.284408
vn 0.124359 0.910849 -0.393559
vn -0.002407 0.954254 -0.298988
vn -0.003064 0.912675 -0.408675
vn -0.092796 0.955702 -0.279325
vn -0.125395 0.913968 -0.385927
vn -0.170141 0.957517 -0.232839
vn -0.237757 0.913040 -0.331406
vn -0.228264 0.959768 -0.163528
vn -0.329886 0.912181 -0.243108
vn -0.261199 0.961756 -0.082471
vn -0.388674 0.912534 -0.127338
vn -0.269403 0.963027 0.001048
vn -0.405813 0.913956 -0.001034
vn 0.341734 -0.909879 -0.235239
vn 0.355234 -0.928291 -0.109934
vn 0.355234 0.928291 -0.109934
vn 0.341734 0.909880 -0.235239
vn 0.297649 -0.873717 -0.384738
vn 0.297649 0.873717 -0.384737
vn 0.187567 -0.822842 -0.536423
vn 0.187567 0.822842 -0.536423
vn -0.000000 -0.793808 -0.608169
vn -0.000000 0.793807 -0.608169
vn -0.187567 -0.822842 -0.536423
vn -0.187568 0.822843 -0.536421
vn -0.297649 -0.873717 -0.384738
vn -0.297649 0.873717 -0.384738
vn -0.341734 -0.909879 -0.235240
vn -0.341734 0.909879 -0.235241
vn -0.355233 -0.928291 -0.109935
vn -0.355233 0.928291 -0.109935
vn -0.357905 -0.933758 0.000000
vn -0.357905 0.933758 0.000000
vn -0.355233 -0.928291 0.109935
vn -0.355233 0.928291 0.109934
vn -0.341734 -0.909879 0.235240
vn -0.341734 0.909879 0.235239
vn -0.297649 -0.873717 0.384739
vn -0.297649 0.873717 0.384738
vn -0.187567 -0.822842 0.536423
vn -0.187567 0.822842 0.536424
vn 0.000000 -0.793807 0.608169
vn 0.000000 0.793806 0.608171
vn 0.187567 -0.822842 0.536423
vn 0.187567 0.822842 0.536422
vn 0.297649 -0.873717 0.384738
vn 0.297649 0.873717 0.384738
vn 0.341734 -0.909879 0.235240
vn 0.341734 0.909879 0.235241
vn 0.355234 -0.928291 0.109935
vn 0.355234 0.928290 0.109935
vn 0.357906 -0.933758 0.000000
vn 0.357906 0.933758 0.000000
s 1
g pCylinder1
usemtl lambert8SG
f 1/29/1 2/30/2 22/31/3 21/32/4
f 2/30/2 3/34/5 23/35/6 22/31/3
f 3/34/5 4/40/7 24/41/8 23/35/6
f 4/40/7 5/46/9 25/47/10 24/41/8
f 5/46/9 6/52/11 26/53/12 25/47/10
f 6/52/11 7/58/13 27/59/14 26/53/12
f 7/58/13 8/64/15 28/65/16 27/59/14
f 8/64/15 9/70/17 29/71/18 28/65/16
f 9/70/17 10/76/19 30/77/20 29/71/18
f 10/76/19 11/82/21 31/83/22 30/77/20
f 11/82/21 12/86/23 32/87/24 31/83/22
f 12/86/23 13/80/25 33/81/26 32/87/24
f 13/80/25 14/74/27 34/75/28 33/81/26
f 14/74/27 15/68/29 35/69/30 34/75/28
f 15/68/29 16/62/31 36/63/32 35/69/30
f 16/62/31 17/56/33 37/57/34 36/63/32
f 17/56/33 18/50/35 38/51/36 37/57/34
f 18/50/35 19/44/37 39/45/38 38/51/36
f 19/44/37 20/38/39 40/39/40 39/45/38
f 20/38/39 1/29/1 21/32/4 40/39/40
s 2
f 2/30/41 1/29/42 41/33/43
f 3/34/44 2/30/41 41/33/43
f 4/40/45 3/34/44 41/33/43
f 5/46/46 4/40/45 41/33/43
f 6/52/47 5/46/46 41/33/43
f 7/58/48 6/52/47 41/33/43
f 8/64/49 7/58/48 41/33/43
f 9/70/50 8/64/49 41/33/43
f 10/76/51 9/70/50 41/33/43
f 11/82/52 10/76/51 41/33/43
f 12/86/53 11/82/52 41/33/43
f 13/80/54 12/86/53 41/33/43
f 14/74/55 13/80/54 41/33/43
f 15/68/56 14/74/55 41/33/43
f 16/62/57 15/68/56 41/33/43
f 17/56/58 16/62/57 41/33/43
f 18/50/59 17/56/58 41/33/43
f 19/44/60 18/50/59 41/33/43
f 20/38/61 19/44/60 41/33/43
f 1/29/42 20/38/61 41/33/43
s 3
f 62/90/62 63/91/63 64/92/64
f 63/91/63 65/95/65 64/92/64
f 65/95/65 66/101/66 64/92/64
f 66/101/66 67/107/67 64/92/64
f 67/107/67 68/113/68 64/92/64
f 68/113/68 69/119/69 64/92/64
f 69/119/69 70/125/70 64/92/64
f 70/125/70 71/131/71 64/92/64
f 71/131/71 72/137/72 64/92/64
f 72/137/72 73/143/73 64/92/64
f 73/143/73 74/144/74 64/92/64
f 74/144/74 75/138/75 64/92/64
f 75/138/75 76/132/76 64/92/64
f 76/132/76 77/126/77 64/92/64
f 77/126/77 78/120/78 64/92/64
f 78/120/78 79/114/79 64/92/64
f 79/114/79 80/108/80 64/92/64
f 80/108/80 81/102/81 64/92/64
f 81/102/81 82/96/82 64/92/64
f 82/96/82 62/90/62 64/92/64
s 4
f 83/1/83 84/2/84 85/3/85 86/4/86
f 84/2/84 87/5/87 88/6/88 85/3/85
f 87/151/87 89/152/89 90/153/90 88/154/88
f 89/152/89 91/155/91 92/156/92 90/153/90
f 91/155/91 93/157/93 94/158/94 92/156/92
f 93/157/93 95/159/95 96/160/96 94/158/94
f 95/21/95 97/15/97 98/18/98 96/22/96
f 97/15/97 99/16/99 100/17/100 98/18/98
f 99/16/99 101/19/101 102/20/102 100/17/100
f 101/19/101 103/23/103 104/24/104 102/20/102
f 103/23/103 105/25/105 106/26/106 104/24/104
f 105/25/105 107/27/107 108/28/108 106/26/106
f 107/161/107 109/162/109 110/163/110 108/164/108
f 109/162/109 111/165/111 112/166/112 110/163/110
f 111/165/111 113/167/113 114/168/114 112/166/112
f 113/167/113 115/169/115 116/170/116 114/168/114
f 115/13/115 117/11/117 118/12/118 116/14/116
f 117/11/117 119/9/119 120/10/120 118/12/118
f 119/9/119 121/7/121 122/8/122 120/10/120
f 121/7/121 83/1/83 86/4/86 122/8/122
s 5
f 42/93/123 43/94/124 63/91/125 62/90/126
f 43/94/124 44/99/127 65/95/128 63/91/125
f 44/99/127 45/105/129 66/101/130 65/95/128
f 45/105/129 46/111/131 67/107/132 66/101/130
f 46/111/131 47/117/133 68/113/134 67/107/132
f 47/117/133 48/123/135 69/119/136 68/113/134
f 48/123/135 49/129/137 70/125/138 69/119/136
f 49/129/137 50/135/139 71/131/140 70/125/138
f 50/135/139 51/141/141 72/137/142 71/131/140
f 51/141/141 52/147/143 73/143/144 72/137/142
f 52/147/143 53/148/145 74/144/146 73/143/144
f 53/148/145 54/142/147 75/138/148 74/144/146
f 54/142/147 55/136/149 76/132/150 75/138/148
f 55/136/149 56/130/151 77/126/152 76/132/150
f 56/130/151 57/124/153 78/120/154 77/126/152
f 57/124/153 58/118/155 79/114/156 78/120/154
f 58/118/155 59/112/157 80/108/158 79/114/156
f 59/112/157 60/106/159 81/102/160 80/108/158
f 60/106/159 61/100/161 82/96/162 81/102/160
f 61/100/161 42/93/123 62/90/126 82/96/162
s 1
f 21/32/4 22/31/3 84/36/163 83/37/164
s 5
f 43/94/124 42/93/123 86/97/165 85/98/166
s 1
f 22/31/3 23/35/6 87/42/167 84/36/163
s 5
f 44/99/127 43/94/124 85/98/166 88/104/168
s 1
f 23/35/6 24/41/8 89/48/169 87/42/167
s 5
f 45/105/129 44/99/127 88/104/168 90/110/170
s 1
f 24/41/8 25/47/10 91/54/171 89/48/169
s 5
f 46/111/131 45/105/129 90/110/170 92/116/172
s 1
f 25/47/10 26/53/12 93/60/173 91/54/171
s 5
f 47/117/133 46/111/131 92/116/172 94/122/174
s 1
f 26/53/12 27/59/14 95/66/175 93/60/173
s 5
f 48/123/135 47/117/133 94/122/174 96/128/176
s 1
f 27/59/14 28/65/16 97/72/177 95/66/175
s 5
f 49/129/137 48/123/135 96/128/176 98/134/178
s 1
f 28/65/16 29/71/18 99/78/179 97/72/177
s 5
f 50/135/139 49/129/137 98/134/178 100/140/180
s 1
f 29/71/18 30/77/20 101/84/181 99/78/179
s 5
f 51/141/141 50/135/139 100/140/180 102/146/182
s 1
f 30/77/20 31/83/22 103/88/183 101/84/181
s 5
f 52/147/143 51/141/141 102/146/182 104/150/184
s 1
f 31/83/22 32/87/24 105/89/185 103/88/183
s 5
f 53/148/145 52/147/143 104/150/184 106/149/186
s 1
f 32/87/24 33/81/26 107/85/187 105/89/185
s 5
f 54/142/147 53/148/145 106/149/186 108/145/188
s 1
f 33/81/26 34/75/28 109/79/189 107/85/187
s 5
f 55/136/149 54/142/147 108/145/188 110/139/190
s 1
f 34/75/28 35/69/30 111/73/191 109/79/189
s 5
f 56/130/151 55/136/149 110/139/190 112/133/192
s 1
f 35/69/30 36/63/32 113/67/193 111/73/191
s 5
f 57/124/153 56/130/151 112/133/192 114/127/194
s 1
f 36/63/32 37/57/34 115/61/195 113/67/193
s 5
f 58/118/155 57/124/153 114/127/194 116/121/196
s 1
f 37/57/34 38/51/36 117/55/197 115/61/195
s 5
f 59/112/157 58/118/155 116/121/196 118/115/198
s 1
f 38/51/36 39/45/38 119/49/199 117/55/197
s 5
f 60/106/159 59/112/157 118/115/198 120/109/200
s 1
f 39/45/38 40/39/40 121/43/201 119/49/199
s 5
f 61/100/161 60/106/159 120/109/200 122/103/202
s 1
f 40/39/40 21/32/4 83/37/164 121/43/201
s 5
f 42/93/123 61/100/161 122/103/202 86/97/165
